<mxfile host="app.diagrams.net" agent="Mozilla/5.0 (Macintosh; Intel Mac OS X 10_15_7) AppleWebKit/537.36 (KHTML, like Gecko) Chrome/131.0.0.0 Safari/537.36" version="26.0.5">
  <diagram name="Page-1" id="ervGVE6bezxw3gJU-uex">
    <mxGraphModel dx="945" dy="922" grid="1" gridSize="10" guides="1" tooltips="1" connect="1" arrows="1" fold="1" page="1" pageScale="1" pageWidth="827" pageHeight="1169" math="0" shadow="0">
      <root>
        <mxCell id="0" />
        <mxCell id="1" parent="0" />
        <mxCell id="zLwOG_vw851Ein2QXLfq-3" value="" style="edgeStyle=none;curved=1;rounded=0;orthogonalLoop=1;jettySize=auto;html=1;fontSize=15;startSize=8;endSize=8;" edge="1" parent="1" source="zLwOG_vw851Ein2QXLfq-1" target="zLwOG_vw851Ein2QXLfq-2">
          <mxGeometry relative="1" as="geometry" />
        </mxCell>
        <mxCell id="zLwOG_vw851Ein2QXLfq-1" value="Start" style="ellipse;whiteSpace=wrap;html=1;aspect=fixed;fontSize=15;" vertex="1" parent="1">
          <mxGeometry x="400" y="70" width="80" height="80" as="geometry" />
        </mxCell>
        <mxCell id="zLwOG_vw851Ein2QXLfq-5" value="" style="edgeStyle=none;curved=1;rounded=0;orthogonalLoop=1;jettySize=auto;html=1;fontSize=15;startSize=8;endSize=8;" edge="1" parent="1" source="zLwOG_vw851Ein2QXLfq-2" target="zLwOG_vw851Ein2QXLfq-4">
          <mxGeometry relative="1" as="geometry" />
        </mxCell>
        <mxCell id="zLwOG_vw851Ein2QXLfq-2" value="Fetch data form LocalStorage" style="whiteSpace=wrap;html=1;fontSize=15;" vertex="1" parent="1">
          <mxGeometry x="380" y="220" width="120" height="60" as="geometry" />
        </mxCell>
        <mxCell id="zLwOG_vw851Ein2QXLfq-7" value="" style="edgeStyle=none;curved=1;rounded=0;orthogonalLoop=1;jettySize=auto;html=1;fontSize=15;startSize=8;endSize=8;" edge="1" parent="1" source="zLwOG_vw851Ein2QXLfq-4" target="zLwOG_vw851Ein2QXLfq-6">
          <mxGeometry relative="1" as="geometry" />
        </mxCell>
        <mxCell id="zLwOG_vw851Ein2QXLfq-8" value="No" style="edgeLabel;html=1;align=center;verticalAlign=middle;resizable=0;points=[];fontSize=15;" vertex="1" connectable="0" parent="zLwOG_vw851Ein2QXLfq-7">
          <mxGeometry x="-0.2286" y="-2" relative="1" as="geometry">
            <mxPoint as="offset" />
          </mxGeometry>
        </mxCell>
        <mxCell id="zLwOG_vw851Ein2QXLfq-10" value="" style="edgeStyle=none;curved=1;rounded=0;orthogonalLoop=1;jettySize=auto;html=1;fontSize=15;startSize=8;endSize=8;" edge="1" parent="1" source="zLwOG_vw851Ein2QXLfq-4" target="zLwOG_vw851Ein2QXLfq-9">
          <mxGeometry relative="1" as="geometry" />
        </mxCell>
        <mxCell id="zLwOG_vw851Ein2QXLfq-4" value="Fulfilled?" style="rhombus;whiteSpace=wrap;html=1;fontSize=15;" vertex="1" parent="1">
          <mxGeometry x="370" y="330" width="140" height="80" as="geometry" />
        </mxCell>
        <mxCell id="zLwOG_vw851Ein2QXLfq-6" value="Fetch data form API and save it to LocalStorage" style="whiteSpace=wrap;html=1;fontSize=15;" vertex="1" parent="1">
          <mxGeometry x="580" y="340" width="120" height="60" as="geometry" />
        </mxCell>
        <mxCell id="zLwOG_vw851Ein2QXLfq-12" value="" style="edgeStyle=none;curved=0;rounded=0;orthogonalLoop=1;jettySize=auto;html=1;fontSize=15;startSize=8;endSize=8;" edge="1" parent="1" source="zLwOG_vw851Ein2QXLfq-9" target="zLwOG_vw851Ein2QXLfq-11">
          <mxGeometry relative="1" as="geometry">
            <Array as="points">
              <mxPoint x="120" y="490" />
            </Array>
          </mxGeometry>
        </mxCell>
        <mxCell id="zLwOG_vw851Ein2QXLfq-14" value="" style="edgeStyle=none;curved=0;rounded=0;orthogonalLoop=1;jettySize=auto;html=1;fontSize=15;startSize=8;endSize=8;" edge="1" parent="1" source="zLwOG_vw851Ein2QXLfq-9" target="zLwOG_vw851Ein2QXLfq-13">
          <mxGeometry relative="1" as="geometry">
            <Array as="points">
              <mxPoint x="330" y="490" />
              <mxPoint x="270" y="490" />
            </Array>
          </mxGeometry>
        </mxCell>
        <mxCell id="zLwOG_vw851Ein2QXLfq-24" value="" style="edgeStyle=none;shape=connector;curved=0;rounded=0;orthogonalLoop=1;jettySize=auto;html=1;strokeColor=default;align=center;verticalAlign=middle;fontFamily=Helvetica;fontSize=12;fontColor=default;labelBackgroundColor=default;startSize=8;endArrow=classic;endSize=8;" edge="1" parent="1" source="zLwOG_vw851Ein2QXLfq-9" target="zLwOG_vw851Ein2QXLfq-23">
          <mxGeometry relative="1" as="geometry" />
        </mxCell>
        <mxCell id="zLwOG_vw851Ein2QXLfq-27" value="" style="edgeStyle=none;shape=connector;curved=0;rounded=0;orthogonalLoop=1;jettySize=auto;html=1;strokeColor=default;align=center;verticalAlign=middle;fontFamily=Helvetica;fontSize=12;fontColor=default;labelBackgroundColor=default;startSize=8;endArrow=classic;endSize=8;" edge="1" parent="1" source="zLwOG_vw851Ein2QXLfq-9" target="zLwOG_vw851Ein2QXLfq-26">
          <mxGeometry relative="1" as="geometry">
            <Array as="points">
              <mxPoint x="620" y="490" />
            </Array>
          </mxGeometry>
        </mxCell>
        <mxCell id="zLwOG_vw851Ein2QXLfq-9" value="Render Countries list" style="rounded=1;whiteSpace=wrap;html=1;fontSize=15;" vertex="1" parent="1">
          <mxGeometry x="380" y="460" width="120" height="60" as="geometry" />
        </mxCell>
        <mxCell id="zLwOG_vw851Ein2QXLfq-11" value="Toggle Theme" style="rounded=1;whiteSpace=wrap;html=1;fontSize=15;" vertex="1" parent="1">
          <mxGeometry x="60" y="554" width="120" height="60" as="geometry" />
        </mxCell>
        <mxCell id="zLwOG_vw851Ein2QXLfq-16" value="" style="edgeStyle=none;shape=connector;curved=0;rounded=0;orthogonalLoop=1;jettySize=auto;html=1;strokeColor=default;align=center;verticalAlign=middle;fontFamily=Helvetica;fontSize=15;fontColor=default;labelBackgroundColor=default;startSize=8;endArrow=classic;endSize=8;" edge="1" parent="1" source="zLwOG_vw851Ein2QXLfq-13" target="zLwOG_vw851Ein2QXLfq-15">
          <mxGeometry relative="1" as="geometry" />
        </mxCell>
        <mxCell id="zLwOG_vw851Ein2QXLfq-13" value="Search for a country&amp;nbsp;" style="rounded=1;whiteSpace=wrap;html=1;fontSize=15;" vertex="1" parent="1">
          <mxGeometry x="210" y="554" width="120" height="60" as="geometry" />
        </mxCell>
        <mxCell id="zLwOG_vw851Ein2QXLfq-18" value="" style="edgeStyle=none;shape=connector;curved=0;rounded=0;orthogonalLoop=1;jettySize=auto;html=1;strokeColor=default;align=center;verticalAlign=middle;fontFamily=Helvetica;fontSize=15;fontColor=default;labelBackgroundColor=default;startSize=8;endArrow=classic;endSize=8;" edge="1" parent="1" source="zLwOG_vw851Ein2QXLfq-15" target="zLwOG_vw851Ein2QXLfq-17">
          <mxGeometry relative="1" as="geometry" />
        </mxCell>
        <mxCell id="zLwOG_vw851Ein2QXLfq-19" value="Yes" style="edgeLabel;html=1;align=center;verticalAlign=middle;resizable=0;points=[];fontSize=15;fontFamily=Helvetica;fontColor=default;labelBackgroundColor=default;" vertex="1" connectable="0" parent="zLwOG_vw851Ein2QXLfq-18">
          <mxGeometry x="-0.2238" y="-2" relative="1" as="geometry">
            <mxPoint y="1" as="offset" />
          </mxGeometry>
        </mxCell>
        <mxCell id="zLwOG_vw851Ein2QXLfq-21" value="" style="edgeStyle=none;shape=connector;curved=0;rounded=0;orthogonalLoop=1;jettySize=auto;html=1;strokeColor=default;align=center;verticalAlign=middle;fontFamily=Helvetica;fontSize=15;fontColor=default;labelBackgroundColor=default;startSize=8;endArrow=classic;endSize=8;" edge="1" parent="1" source="zLwOG_vw851Ein2QXLfq-15" target="zLwOG_vw851Ein2QXLfq-20">
          <mxGeometry relative="1" as="geometry" />
        </mxCell>
        <mxCell id="zLwOG_vw851Ein2QXLfq-22" value="No" style="edgeLabel;html=1;align=center;verticalAlign=middle;resizable=0;points=[];fontSize=15;fontFamily=Helvetica;fontColor=default;labelBackgroundColor=default;" vertex="1" connectable="0" parent="zLwOG_vw851Ein2QXLfq-21">
          <mxGeometry x="-0.52" y="4" relative="1" as="geometry">
            <mxPoint as="offset" />
          </mxGeometry>
        </mxCell>
        <mxCell id="zLwOG_vw851Ein2QXLfq-15" value="result found?" style="rhombus;whiteSpace=wrap;html=1;rounded=1;fontSize=15;" vertex="1" parent="1">
          <mxGeometry x="210" y="680" width="120" height="80" as="geometry" />
        </mxCell>
        <mxCell id="zLwOG_vw851Ein2QXLfq-17" value="Render result list&amp;nbsp;" style="rounded=1;whiteSpace=wrap;html=1;fontSize=15;" vertex="1" parent="1">
          <mxGeometry x="210" y="830" width="120" height="60" as="geometry" />
        </mxCell>
        <mxCell id="zLwOG_vw851Ein2QXLfq-20" value="Show &quot;No result found&quot; message" style="whiteSpace=wrap;html=1;rounded=1;fontSize=15;" vertex="1" parent="1">
          <mxGeometry x="40" y="690" width="120" height="60" as="geometry" />
        </mxCell>
        <mxCell id="zLwOG_vw851Ein2QXLfq-25" style="edgeStyle=none;shape=connector;curved=0;rounded=0;orthogonalLoop=1;jettySize=auto;html=1;entryX=1;entryY=0.5;entryDx=0;entryDy=0;strokeColor=default;align=center;verticalAlign=middle;fontFamily=Helvetica;fontSize=12;fontColor=default;labelBackgroundColor=default;startSize=8;endArrow=classic;endSize=8;" edge="1" parent="1" source="zLwOG_vw851Ein2QXLfq-23" target="zLwOG_vw851Ein2QXLfq-15">
          <mxGeometry relative="1" as="geometry">
            <Array as="points">
              <mxPoint x="440" y="720" />
            </Array>
          </mxGeometry>
        </mxCell>
        <mxCell id="zLwOG_vw851Ein2QXLfq-23" value="Select Region from dropdown" style="whiteSpace=wrap;html=1;fontSize=15;rounded=1;" vertex="1" parent="1">
          <mxGeometry x="380" y="554" width="120" height="60" as="geometry" />
        </mxCell>
        <mxCell id="zLwOG_vw851Ein2QXLfq-29" value="" style="edgeStyle=none;shape=connector;curved=0;rounded=0;orthogonalLoop=1;jettySize=auto;html=1;strokeColor=default;align=center;verticalAlign=middle;fontFamily=Helvetica;fontSize=12;fontColor=default;labelBackgroundColor=default;startSize=8;endArrow=classic;endSize=8;" edge="1" parent="1" source="zLwOG_vw851Ein2QXLfq-26" target="zLwOG_vw851Ein2QXLfq-28">
          <mxGeometry relative="1" as="geometry" />
        </mxCell>
        <mxCell id="zLwOG_vw851Ein2QXLfq-26" value="Choose a country from the list" style="whiteSpace=wrap;html=1;fontSize=15;rounded=1;" vertex="1" parent="1">
          <mxGeometry x="560" y="550" width="120" height="60" as="geometry" />
        </mxCell>
        <mxCell id="zLwOG_vw851Ein2QXLfq-31" value="" style="edgeStyle=none;shape=connector;curved=0;rounded=0;orthogonalLoop=1;jettySize=auto;html=1;strokeColor=default;align=center;verticalAlign=middle;fontFamily=Helvetica;fontSize=12;fontColor=default;labelBackgroundColor=default;startSize=8;endArrow=classic;endSize=8;" edge="1" parent="1" source="zLwOG_vw851Ein2QXLfq-28" target="zLwOG_vw851Ein2QXLfq-30">
          <mxGeometry relative="1" as="geometry" />
        </mxCell>
        <mxCell id="zLwOG_vw851Ein2QXLfq-28" value="Open new page with the country details&amp;nbsp;" style="whiteSpace=wrap;html=1;fontSize=15;rounded=1;" vertex="1" parent="1">
          <mxGeometry x="560" y="670" width="120" height="60" as="geometry" />
        </mxCell>
        <mxCell id="zLwOG_vw851Ein2QXLfq-32" style="edgeStyle=none;shape=connector;curved=0;rounded=0;orthogonalLoop=1;jettySize=auto;html=1;strokeColor=default;align=center;verticalAlign=middle;fontFamily=Helvetica;fontSize=12;fontColor=default;labelBackgroundColor=default;startSize=8;endArrow=classic;endSize=8;entryX=1;entryY=0.5;entryDx=0;entryDy=0;exitX=1;exitY=0.5;exitDx=0;exitDy=0;" edge="1" parent="1" source="zLwOG_vw851Ein2QXLfq-30" target="zLwOG_vw851Ein2QXLfq-1">
          <mxGeometry relative="1" as="geometry">
            <mxPoint x="800" y="470" as="targetPoint" />
            <Array as="points">
              <mxPoint x="800" y="880" />
              <mxPoint x="800" y="490" />
              <mxPoint x="800" y="110" />
            </Array>
          </mxGeometry>
        </mxCell>
        <mxCell id="zLwOG_vw851Ein2QXLfq-30" value="Click &quot;Back&quot; button" style="whiteSpace=wrap;html=1;fontSize=15;rounded=1;" vertex="1" parent="1">
          <mxGeometry x="560" y="850" width="120" height="60" as="geometry" />
        </mxCell>
      </root>
    </mxGraphModel>
  </diagram>
</mxfile>
